<svg width="170" height="88" viewBox="0 0 170 88" fill="none" xmlns="http://www.w3.org/2000/svg">
<g clip-path="url(#clip0_41_1466)">
<path d="M84.6788 44.03C84.6788 44.03 84.6788 44.03 84.6863 44.03C84.6788 44.0713 84.6788 44.0938 84.6788 44.0938V44.0338V44.03Z" fill="white"/>
<path d="M61.2076 4.89126C61.8113 4.89126 62.3288 4.67752 62.7526 4.25002C63.1801 3.82626 63.3938 3.30876 63.3938 2.70501C63.3938 2.10126 63.1801 1.58376 62.7526 1.15626C62.3288 0.728765 61.8113 0.515015 61.2076 0.515015C60.6038 0.515015 60.0863 0.728765 59.6588 1.15626C59.2313 1.58376 59.0176 2.10126 59.0176 2.70501C59.0176 3.30876 59.2313 3.82626 59.6588 4.25002C60.0863 4.67752 60.6038 4.89126 61.2076 4.89126ZM59.8126 1.29501C60.1988 0.905015 60.6638 0.710015 61.2076 0.710015C61.7513 0.710015 62.2238 0.905015 62.6026 1.29501C62.9888 1.68126 63.1838 2.15376 63.1838 2.70501C63.1838 3.25626 62.9888 3.72501 62.6026 4.11876C62.2238 4.50501 61.7588 4.70002 61.2076 4.70002C60.6563 4.70002 60.1988 4.50501 59.8126 4.11126C59.4226 3.72127 59.2313 3.25251 59.2313 2.70501C59.2313 2.15751 59.4226 1.68126 59.8126 1.29501Z" fill="white"/>
<path d="M61.2264 3.87884C61.4401 3.87884 61.6351 3.82634 61.8151 3.72134C61.9951 3.62009 62.1339 3.48134 62.2351 3.30134L61.7401 3.01259C61.6389 3.21134 61.4664 3.30884 61.2189 3.30884C61.0426 3.30884 60.8963 3.24884 60.7838 3.12884C60.6713 3.01259 60.6151 2.87009 60.6151 2.70509C60.6151 2.54009 60.6713 2.39384 60.7838 2.27384C60.8963 2.15759 61.0426 2.10134 61.2189 2.10134C61.4626 2.10134 61.6313 2.19509 61.7326 2.39009L62.2351 2.10134C62.1301 1.91759 61.9876 1.77884 61.8114 1.67759C61.6351 1.57634 61.4401 1.52759 61.2264 1.52759C60.8964 1.52759 60.6151 1.64384 60.3864 1.87634C60.1576 2.10509 60.0414 2.38259 60.0414 2.70509C60.0414 3.02759 60.1576 3.30134 60.3864 3.53384C60.6151 3.76259 60.8964 3.87884 61.2264 3.87884Z" fill="white"/>
<path d="M65.5876 22.6588L74.6138 12.8226C76.2788 11.1688 78.2213 9.90131 80.3851 9.05006C82.5713 8.19131 84.8738 7.79756 87.2401 7.87631C91.1476 8.01131 94.8488 9.46631 97.7888 11.9976V20.8476H104.179V9.28256L103.245 8.34881C99.0263 4.13006 93.4238 1.69631 87.4651 1.49006C84.2213 1.37756 81.0563 1.92131 78.0526 3.10256C75.0451 4.28381 72.3526 6.05006 70.0538 8.35256L60.6788 18.5676L64.8713 22.4151H59.2051V38.8288H62.4001V43.5688H76.4401V37.1788H65.5951V22.6626L65.5876 22.6588Z" fill="white"/>
<path d="M87.7088 34.5801H81.3301V43.7301H87.7088V34.5801Z" fill="white"/>
<path d="M103.208 31.3438L106.661 34.7975V43.7225H113.051V32.15L105.855 24.9538H95.2576V28.4825L91.7213 24.9425H81.3301V31.3475H89.0813L94.3313 36.5975V43.4338H100.736V33.9613L98.1188 31.3438H103.208Z" fill="white"/>
<path d="M12.2813 74.1913L4.00134 59.3451H9.15527e-05V81.4176H4.58259V69.4176L10.7438 80.4576H13.8226L19.9088 69.5301V81.4176H24.4876V59.3451H20.5238L12.2813 74.1913Z" fill="white"/>
<path d="M43.5826 59.3451H32.4113V63.6576H43.3913C43.8638 63.6576 44.2313 63.7476 44.4451 63.9238C44.5051 63.9688 44.6476 64.0851 44.6476 64.5313V67.7038H36.1388C35.1901 67.7038 34.3426 67.9213 33.6188 68.3451C32.8726 68.7801 32.2988 69.3913 31.9163 70.1563C31.5563 70.8763 31.3763 71.6938 31.3763 72.5863V76.9588C31.3763 77.9563 31.6013 78.8076 32.0476 79.4938C32.5013 80.1951 33.1088 80.7051 33.8588 81.0088C34.5113 81.2788 35.2276 81.4176 35.9888 81.4176H42.9188C43.4738 81.4176 43.8601 81.2376 44.1301 80.9751C44.3288 80.7801 44.4676 80.5401 44.5613 80.3001C44.6138 80.1538 44.6551 80.0038 44.6851 79.8651C44.7076 79.7451 44.7226 79.6326 44.7338 79.5313L44.7226 79.8501L44.7113 80.2551L44.6926 80.8438L44.6738 81.4176H49.0763V64.4526C49.0763 62.7651 48.5776 61.4676 47.5988 60.5976C46.6651 59.7651 45.3113 59.3451 43.5826 59.3451ZM35.8051 72.7401C35.8051 72.3501 35.9213 72.2263 35.9738 72.1738C36.0713 72.0726 36.2701 72.0201 36.5626 72.0201H44.6476V75.8076C44.6476 76.0138 44.5913 76.2201 44.4713 76.4301C44.3513 76.6401 44.1976 76.7976 43.9838 76.9213C43.7813 77.0451 43.5376 77.1051 43.2376 77.1051H36.4876C36.2063 77.1051 35.9926 77.0526 35.8876 76.9626C35.8651 76.9363 35.8051 76.7901 35.8051 76.4601V72.7401Z" fill="white"/>
<path d="M64.2451 70.7188C64.0126 70.7488 63.8101 70.8163 63.6451 70.8913C63.4988 70.9626 63.3863 71.0338 63.3151 71.0863L63.3038 71.0751L63.5701 70.8088L64.3913 69.9876L73.6613 59.3451H67.5713L60.5063 67.4863V59.3451H55.9651V81.4176H60.5063V72.8863L68.0776 81.4176H74.3288L64.7663 70.7376C64.5826 70.7001 64.4063 70.7001 64.2451 70.7188Z" fill="white"/>
<path d="M91.1851 59.3038H85.1363C85.1363 59.3038 85.0426 59.2963 84.8926 59.3038C84.8588 59.3038 84.8176 59.3038 84.7763 59.3038C84.6301 59.3038 84.6901 59.3113 84.5476 59.3263L84.6263 59.3188C84.1913 59.3675 83.5763 59.5213 83.1788 59.975C83.0063 60.1738 82.8751 60.4251 82.8188 60.7551C82.7963 60.8713 82.7851 60.9988 82.7851 61.1338V59.3788H78.8251V81.4138H83.2538V65.2926C83.2538 64.8013 83.3813 64.43 83.6588 64.1225C83.9026 63.8563 84.2588 63.7288 84.7801 63.7288H90.8401C91.3538 63.7288 91.5226 63.9238 91.5938 64.0063C91.7963 64.2425 91.9051 64.6476 91.9051 65.1801V81.4138H96.4463V64.6401C96.4463 63.0051 95.9551 61.6888 94.9801 60.7326C94.0126 59.7838 92.7376 59.3 91.1851 59.3V59.3038Z" fill="white"/>
<path d="M115.159 59.3451H103.988V63.6576H114.968C115.44 63.6576 115.808 63.7476 116.021 63.9238C116.081 63.9688 116.224 64.0851 116.224 64.5313V67.7038H107.715C106.766 67.7038 105.919 67.9213 105.191 68.3451C104.449 68.7801 103.875 69.3913 103.493 70.1563C103.133 70.8763 102.953 71.6938 102.953 72.5863V76.9588C102.953 77.9563 103.178 78.8076 103.624 79.4938C104.078 80.1951 104.685 80.7051 105.431 81.0088C106.088 81.2788 106.804 81.4176 107.561 81.4176H114.379C114.731 81.3726 115.196 81.2676 115.571 80.9938C115.793 80.8288 115.984 80.6113 116.1 80.3113C116.149 80.1838 116.186 80.0413 116.209 79.8838C116.216 79.7938 116.224 79.7001 116.224 79.5988V81.4176H120.653V64.4526C120.653 62.7651 120.154 61.4676 119.175 60.5976C118.241 59.7651 116.888 59.3451 115.159 59.3451ZM107.378 72.7401C107.378 72.3501 107.498 72.2263 107.546 72.1738C107.648 72.0726 107.846 72.0201 108.139 72.0201H116.224V75.8076C116.224 76.0138 116.164 76.2201 116.048 76.4301C115.928 76.6401 115.774 76.7976 115.56 76.9213C115.358 77.0451 115.114 77.1051 114.814 77.1051H108.06C107.783 77.1051 107.565 77.0526 107.464 76.9626C107.441 76.9363 107.378 76.7901 107.378 76.4601V72.7401Z" fill="white"/>
<path d="M139.898 59.3038L133.868 59.3113H133.77C133.226 59.3563 132.848 59.5438 132.578 59.7838C132.326 60.0088 132.173 60.2788 132.083 60.5075C132.008 60.71 131.974 60.8788 131.963 60.965C131.963 60.965 131.96 60.965 131.955 60.965V59.3825H131.966L127.538 59.3788V81.4138H131.966V65.2926C131.966 64.8013 132.098 64.43 132.375 64.1225C132.619 63.8563 132.975 63.7288 133.493 63.7288H139.553C140.066 63.7288 140.235 63.9238 140.306 64.0063C140.513 64.2425 140.618 64.6476 140.618 65.1801V81.4138H145.163V64.6401C145.163 63.0051 144.668 61.6888 143.696 60.7326C142.729 59.7838 141.45 59.3 139.898 59.3V59.3038Z" fill="white"/>
<path d="M167.888 60.5976C166.954 59.7651 165.604 59.3451 163.871 59.3451H152.7V63.6576H163.68C164.156 63.6576 164.52 63.7476 164.738 63.9238C164.798 63.9688 164.936 64.0851 164.936 64.5313V67.7038H156.431C155.483 67.7038 154.631 67.9213 153.908 68.3451C153.161 68.7801 152.591 69.3913 152.209 70.1563C151.849 70.8763 151.665 71.6938 151.665 72.5863V76.9588C151.665 77.9563 151.894 78.8076 152.336 79.4938C152.79 80.1951 153.401 80.7051 154.148 81.0088C154.8 81.2788 155.516 81.4176 156.278 81.4176H163.474C163.721 81.3913 164.111 81.2938 164.441 80.9713C164.606 80.8101 164.756 80.5926 164.869 80.2963C164.918 80.1651 164.959 80.0226 164.985 79.8576C165.008 79.7563 165.023 79.6513 165.034 79.5351L165.023 79.8463L165.011 80.2513L164.993 80.8438L164.974 81.4176H169.365V64.4526C169.365 62.7651 168.87 61.4676 167.888 60.5976ZM156.094 72.7401C156.094 72.3501 156.214 72.2263 156.263 72.1738C156.364 72.0726 156.563 72.0201 156.851 72.0201H164.936V75.8076C164.936 76.0138 164.88 76.2201 164.76 76.4301C164.644 76.6401 164.49 76.7976 164.276 76.9213C164.07 77.0451 163.826 77.1051 163.526 77.1051H156.776C156.495 77.1051 156.281 77.0526 156.176 76.9626C156.154 76.9363 156.094 76.7901 156.094 76.4601V72.7401Z" fill="white"/>
<path d="M163.425 87.6013H163.219C163.219 87.6013 163.298 87.6088 163.425 87.6013Z" fill="white"/>
</g>
<defs>
<clipPath id="clip0_41_1466">
<rect width="169.365" height="87.09" fill="white" transform="translate(0 0.515015)"/>
</clipPath>
</defs>
</svg>
